<svg xmlns="http://www.w3.org/2000/svg" xmlns:xlink="http://www.w3.org/1999/xlink" version="1.1" id="Layer_1" x="0px" y="0px" viewBox="0 0 512 512" style="enable-background:new 0 0 512 512;" xml:space="preserve" width="512" height="512" class=""><g><circle style="fill:#FEC02F" cx="30.484" cy="159.638" r="21.71" data-original="#F5CFB2" class="active-path" data-old_color="#F5CFB2"></circle><path style="opacity:0.1;fill:#222222;enable-background:new    ;" d="M30.479,137.922c-11.99,0-21.709,9.721-21.709,21.71  s9.718,21.71,21.709,21.71V137.922z"></path><circle style="fill:#FEC02F" cx="91.793" cy="141.209" r="21.71" data-original="#F5CFB2" class="active-path" data-old_color="#F5CFB2"></circle><path style="opacity:0.1;fill:#222222;enable-background:new    ;" d="M91.791,119.495c-11.99,0-21.709,9.721-21.709,21.71  s9.719,21.71,21.709,21.71V119.495z"></path><path style="fill:#FEC02F" d="M441.017,438.999H191.299c-82.501,0-149.621-67.12-149.621-149.621V264.79  c0-34.358,27.855-62.212,62.213-62.212c34.36,0,62.213,27.853,62.213,62.212v24.589c0,13.892,11.303,25.193,25.194,25.193h249.719  c34.358,0,62.213,27.855,62.213,62.214C503.23,411.145,475.375,438.999,441.017,438.999z" data-original="#F5CFB2" class="active-path" data-old_color="#F5CFB2"></path><g>
	<path style="opacity:0.1;fill:#222222;enable-background:new    ;" d="M191.299,314.572c-13.892,0-25.194-11.302-25.194-25.193   V264.79c0-34.358-27.853-62.212-62.213-62.212c-34.358,0-62.213,27.853-62.213,62.212v24.589   c0,82.501,67.12,149.621,149.621,149.621h119.778V314.572H191.299z"></path>
	<path style="opacity:0.1;fill:#222222;enable-background:new    ;" d="M441.017,314.572H191.299   c-13.892,0-25.194-11.302-25.194-25.193V264.79c0-23.345-12.866-43.675-31.886-54.317c-1.001,7.651-1.526,15.452-1.526,23.375   c0,98.52,79.867,178.385,178.385,178.385c67.143,0,125.611-37.102,156.048-91.915C459.185,316.638,450.345,314.572,441.017,314.572   z"></path>
</g><circle style="fill:#F2453E" cx="311.077" cy="233.844" r="160.842" data-original="#997668" class="" data-old_color="#997668"></circle><path style="opacity:0.2;fill:#222222;enable-background:new    ;" d="M311.077,73.003c-88.832,0-160.845,72.013-160.845,160.845  c0,88.833,72.013,160.845,160.845,160.845V73.003z"></path><path style="fill:#1E252B;" d="M462.962,309.283c11.338-22.735,17.729-48.352,17.729-75.436  c0-93.525-76.088-169.615-169.614-169.615c-84.07,0-154.037,61.485-167.329,141.846c-9.482-6.436-20.419-10.519-31.898-11.815  l-5.499-26.287c9.476-5.175,15.92-15.234,15.92-26.772c0-16.807-13.673-30.48-30.48-30.48s-30.479,13.673-30.479,30.48  c0,15.927,12.281,29.032,27.87,30.362l4.8,22.946c-12.383,1.738-23.747,6.679-33.23,13.961l-10.795-25.417  c6.719-5.595,11.003-14.018,11.003-23.424c0-16.807-13.673-30.48-30.48-30.48C13.673,129.152,0,142.826,0,159.633  s13.673,30.48,30.479,30.48c1.128,0,2.242-0.067,3.338-0.186l13.574,31.958c-9.079,11.926-14.483,26.794-14.483,42.904v24.589  c0,87.337,71.054,158.391,158.391,158.391h249.719c39.14,0,70.983-31.842,70.983-70.983  C512,345.779,491.615,318.638,462.962,309.283z M30.479,172.573c-7.134,0-12.939-5.806-12.939-12.94  c0-7.135,5.805-12.94,12.939-12.94c7.135,0,12.94,5.806,12.94,12.94C43.42,166.767,37.614,172.573,30.479,172.573z M311.077,81.773  c83.854,0,152.074,68.221,152.074,152.075c0,41.107-16.401,78.45-42.995,105.848c-24.693,14.007-52.787,21.421-81.36,21.421  c-71.867,0-130.336-58.469-130.336-130.336c0-56.528,45.987-102.515,102.514-102.515c44.255,0,80.259,36.005,80.259,80.262  c0,34.434-28.017,62.449-62.453,62.449c-26.581,0-48.208-21.626-48.208-48.208c0-20.298,16.514-36.812,36.813-36.812  c15.271,0,27.696,12.425,27.696,27.698c0,11.25-9.152,20.402-20.402,20.402c-8.033,0-14.569-6.535-14.569-14.569  c0-4.845-3.927-8.77-8.77-8.77c-4.843,0-8.77,3.925-8.77,8.77c0,17.705,14.404,32.109,32.109,32.109  c20.922,0,37.942-17.022,37.942-37.942c0-24.944-20.293-45.238-45.236-45.238c-29.97,0-54.353,24.383-54.353,54.352  c0,36.253,29.494,65.748,65.748,65.748c44.108,0,79.993-35.882,79.993-79.989c0-53.927-43.872-97.802-97.799-97.802  c-66.198,0-120.054,53.857-120.054,120.055c0,81.54,66.336,147.876,147.876,147.876c7.743,0,15.455-0.504,23.09-1.475  c-15.896,5.653-32.997,8.741-50.809,8.741c-83.855,0-152.075-68.221-152.075-152.075S227.223,81.773,311.077,81.773z   M91.791,154.145c-7.135,0-12.939-5.806-12.939-12.94c0-7.135,5.805-12.94,12.939-12.94c7.135,0,12.94,5.806,12.94,12.94  S98.927,154.145,91.791,154.145z M441.017,430.229H191.299c-77.666,0-140.851-63.185-140.851-140.851V264.79  c0-29.468,23.975-53.442,53.443-53.442c14.185,0,27.734,5.655,37.724,15.608c-0.092,2.288-0.152,4.584-0.152,6.893  c0,93.525,76.088,169.615,169.615,169.615c46.881,0,89.378-19.122,120.11-49.971c0.627-0.492,1.176-1.054,1.635-1.674  c7.948-8.201,15.082-17.191,21.26-26.854c23.371,5.891,40.378,27.243,40.378,51.822C494.46,406.254,470.485,430.229,441.017,430.229  z" data-original="#1E252B" class=""></path></g> </svg>